HIERARCHY
ROOT Hips
{
  OFFSET -35.2597 29.1586 114.425
  CHANNELS 6 Xposition Yposition Zposition Zrotation Xrotation Yrotation
  JOINT LeftUpLeg
  {
    OFFSET 8.64259 1.95398 -2.38835
    CHANNELS 3 Zrotation Xrotation Yrotation
    JOINT LeftLeg
    {
      OFFSET 43.7702 0 0
      CHANNELS 3 Zrotation Xrotation Yrotation
      JOINT LeftFoot
      {
        OFFSET 40.6238 0 0
        CHANNELS 3 Zrotation Xrotation Yrotation
        JOINT LeftToeBase
        {
          OFFSET 12.7242 0 0
          CHANNELS 3 Zrotation Xrotation Yrotation
          End Site
          {
            OFFSET 0 0 0
          }
        }
      }
    }
  }
  JOINT RightUpLeg
  {
    OFFSET -8.2249 1.95398 -2.59336
    CHANNELS 3 Zrotation Xrotation Yrotation
    JOINT RightLeg
    {
      OFFSET 43.5653 0 0
      CHANNELS 3 Zrotation Xrotation Yrotation
      JOINT RightFoot
      {
        OFFSET 40.6238 0 0
        CHANNELS 3 Zrotation Xrotation Yrotation
        JOINT RightToeBase
        {
          OFFSET 12.7242 0 0
          CHANNELS 3 Zrotation Xrotation Yrotation
          End Site
          {
            OFFSET 0 0 0
          }
        }
      }
    }
  }
  JOINT Spine
  {
    OFFSET 0.165834 0.87714 6.61349
    CHANNELS 3 Zrotation Xrotation Yrotation
    JOINT Spine1
    {
      OFFSET 7.38963 1.71661e-005 0
      CHANNELS 3 Zrotation Xrotation Yrotation
      JOINT Spine2
      {
        OFFSET 11.9445 1.14441e-005 0
        CHANNELS 3 Zrotation Xrotation Yrotation
        JOINT Spine3
        {
          OFFSET 14.7254 4.19617e-005 0
          CHANNELS 3 Zrotation Xrotation Yrotation
          JOINT Spine4
          {
            OFFSET 10.9679 0 0
            CHANNELS 3 Zrotation Xrotation Yrotation
            JOINT RightShoulder
            {
              OFFSET 2.46616 -1.6653 3.69651
              CHANNELS 3 Zrotation Xrotation Yrotation
              JOINT RightArm
              {
                OFFSET 13.0012 0 0
                CHANNELS 3 Zrotation Xrotation Yrotation
                JOINT RightForeArm
                {
                  OFFSET 28.7848 1.62311e-005 0
                  CHANNELS 3 Zrotation Xrotation Yrotation
                  JOINT RightHand
                  {
                    OFFSET 26.5688 1.62095e-005 0
                    CHANNELS 3 Zrotation Xrotation Yrotation
                    End Site
                    {
                      OFFSET 0 0 0
                    }
                  }
                }
              }
            }
            JOINT LeftShoulder
            {
              OFFSET 2.38034 -1.29275 -3.7523
              CHANNELS 3 Zrotation Xrotation Yrotation
              JOINT LeftArm
              {
                OFFSET 16.3182 6.07031e-005 0
                CHANNELS 3 Zrotation Xrotation Yrotation
                JOINT LeftForeArm
                {
                  OFFSET 27.0901 0 0
                  CHANNELS 3 Zrotation Xrotation Yrotation
                  JOINT LeftHand
                  {
                    OFFSET 24.5451 1.51738e-005 0
                    CHANNELS 3 Zrotation Xrotation Yrotation
                    End Site
                    {
                      OFFSET 0 0 0
                    }
                  }
                }
              }
            }
            JOINT Neck
            {
              OFFSET 5.0226 -0.0266342 0
              CHANNELS 3 Zrotation Xrotation Yrotation
              JOINT Head
              {
                OFFSET 6.69364 2.86102e-005 0
                CHANNELS 3 Zrotation Xrotation Yrotation
                End Site
                {
                  OFFSET 0 0 0
                }
              }
            }
          }
        }
      }
    }
  }
}
MOTION
Frames:	10
Frame Time:	0.0416667
-102.369 22.6121 110.537 -9.71188 -11.1317 -89.664 -145.475 25.221 106.912 -59.7067 21.0505 -15.4342 80.043 11.586 -6.48125 35.591 -3.77689 16.3808 169.222 6.68877 83.644 -35.6382 -15.6016 0.504046 71.5855 -7.49837 0.833475 29.5991 -1.89857 5.50351 -0.0469353 6.99441 -89.4545 12.883 0.168332 1.07054 1.21163 0.215289 1.06209 -21.32 -0.161181 1.07164 -1.30738 -0.161184 1.07163 83.7728 -34.4673 -116.551 -7.18719 84.7415 67.6834 -57.2594 19.4882 -106.536 -55.7748 23.6247 -48.7774 -88.4529 -49.6873 80.9851 -26.5774 -26.9012 -30.7784 62.5095 -17.7486 -101.003 26.0636 -6.25003 -28.3493 31.864 -2.05363 0.942319 5.8458 -2.30774 0.146399 
-101.097 23.6556 112.665 -9.75715 -7.12978 -89.0479 -148.334 21.7125 107.153 -57.0013 16.7457 -14.5286 66.2112 2.68741 -5.54936 33.4743 -3.95841 13.7665 167.999 10.2336 82.6167 -39.5945 -15.5782 1.19788 71.964 -7.40956 1.22438 31.3624 -2.70901 6.17105 0.296682 6.96137 -89.6382 12.9492 0.762661 0.63079 1.2783 0.789686 0.596595 -21.2566 0.537835 0.830821 -1.24399 0.537826 0.830818 83.1389 -32.9254 -118.469 -16.0347 81.7706 65.0047 -56.5124 12.5429 -102.075 -54.1655 21.2951 -45.9959 -88.4975 -49.7222 80.9242 -25.3761 -24.9368 -33.6196 64.3506 -16.0226 -99.5276 25.9001 -5.32131 -24.9289 30.8472 -1.35365 2.84143 6.09548 -2.4964 -1.29367 
-99.1919 24.6138 114.71 -9.71182 -3.12019 -87.9582 -151.168 16.5245 106.541 -49.2933 8.54241 -14.481 67.8189 3.72931 -5.46078 30.4743 -5.99195 13.8459 167.756 13.6915 81.7464 -43.2649 -18.3541 1.15087 73.6284 -8.19242 1.88687 32.8005 -3.13759 5.83029 0.703516 6.99049 -89.889 12.893 1.45021 0.0479093 1.22291 1.4509 -0.0159782 -21.3181 1.36875 0.481624 -1.30546 1.36875 0.481624 85.0973 -29.4031 -116.634 -15.0956 79.2807 59.1025 -56.9487 9.20586 -99.5041 -53.9402 18.4595 -41.0081 -88.3487 -48.0195 80.8225 -24.9027 -23.9696 -36.8695 64.2461 -14.5408 -98.8393 24.6879 -4.10406 -20.9217 31.0436 -1.0026 2.92069 5.59857 -2.18362 -1.10131 
-96.8556 25.7238 116.422 -10.3454 -2.06976 -88.2777 -151.949 13.5142 105.268 -39.8633 8.1425 -15.4977 75.2656 8.34544 -7.08537 34.3869 -5.185 17.5958 166.453 16.0544 80.0078 -46.1868 -20.4714 1.57266 75.6769 -9.64972 0.825454 36.2107 -4.37395 6.09356 0.768611 7.14663 -90.1106 12.5848 1.47406 -0.394248 0.914578 1.45527 -0.458768 -21.6273 1.52438 0.067094 -1.6147 1.52438 0.0670735 86.3891 -25.7883 -115.994 -15.1046 77.3292 51.652 -56.8381 5.04894 -96.0303 -52.835 15.5435 -36.2692 -88.4573 -48.8981 80.8303 -24.627 -23.4742 -43.8565 66.9776 -11.5242 -96.7836 22.8152 -3.09156 -17.7546 31.4298 -0.243484 4.97569 5.58511 -2.39431 -2.41267 
-94.9231 27.0177 117.601 -11.265 -1.05492 -88.0581 -152.562 14.4135 104.701 -38.5663 12.3218 -14.667 78.3428 10.687 -6.52925 37.5133 -4.00536 19.7924 165.636 18.3477 79.3836 -49.8891 -20.2353 1.88101 76.9226 -10.3383 0.760879 40.0521 -4.8833 1.24741 0.870171 7.32356 -90.1043 12.2309 1.6802 -0.396147 0.560938 1.66113 -0.469704 -21.9829 1.72156 0.127309 -1.97028 1.72153 0.12731 86.6098 -25.9198 -115.468 -20.0134 75.7437 47.0631 -57.8418 -1.10833 -91.97 -51.1072 12.532 -31.3627 -88.5545 -44.9404 79.8754 -24.3403 -23.031 -48.4756 69.825 -9.10215 -95.2517 21.6436 -1.97266 -13.2021 30.7138 -1.15653 2.41085 6.66082 -2.06651 -0.249587 
-93.5733 28.0426 118.956 -11.9003 1.43914 -88.0289 -152.175 15.6698 104.488 -42.1314 13.0524 -14.0781 81.1877 12.0369 -8.39424 37.3559 -4.35978 20.3153 165.308 22.0044 79.1433 -55.4592 -19.1669 1.72498 77.3928 -10.5672 0.260386 38.1533 -4.18689 1.50375 0.946618 7.38198 -90.1187 12.115 1.82568 -0.438232 0.445234 1.80462 -0.518185 -22.1003 1.87294 0.130917 -2.08759 1.87293 0.130917 85.7951 -24.8448 -117.746 -19.0743 72.6462 39.105 -55.9886 -5.96833 -87.6438 -51.8234 10.679 -27.2206 -88.0603 -43.6916 80.4042 -24.1166 -22.7737 -52.1323 70.8812 -6.8733 -94.3067 19.9273 -1.22747 -10.1504 29.7446 -0.944835 2.43099 6.87524 -1.89723 -0.805375 
-92.9393 28.0267 120.544 -12.1535 2.05003 -87.6559 -151.664 17.207 104.374 -45.8906 14.9395 -13.7453 82.3696 12.8772 -8.31936 36.0047 -5.17516 19.9459 163.46 23.4306 78.3405 -57.2965 -18.4409 2.59377 76.9447 -10.2809 -0.0559734 38.4814 -4.21514 0.971047 0.92847 7.31341 -90.2602 12.2539 1.72211 -0.712261 0.583892 1.68907 -0.787393 -21.9603 1.85651 -0.161614 -1.94764 1.85652 -0.161621 86.7929 -24.4222 -115.907 -13.5685 73.0097 32.9599 -61.5816 -6.2576 -90.1491 -47.172 7.74221 -22.8824 -87.4843 -42.5759 81.1175 -23.735 -22.377 -54.7833 71.2315 -4.45798 -93.3285 18.7102 -0.870702 -8.54637 30.3536 -0.16863 2.81886 6.57448 -1.37405 -1.38956 
-92.7641 26.8494 122.105 -12.5439 2.7178 -86.9982 -150.175 18.623 104.94 -50.5211 15.6337 -13.8315 81.6816 12.2688 -8.67572 36.1979 -5.07931 20.0389 162.45 22.7463 77.2733 -56.905 -19.7148 2.87226 76.5815 -10.1153 0.117585 39.8695 -4.68391 0.519861 1.02286 7.19896 -90.3177 12.4841 1.881 -0.851757 0.814134 1.84168 -0.933744 -21.7316 2.04999 -0.246856 -1.71893 2.04999 -0.246849 88.8754 -23.033 -112.191 -3.30921 71.88 32.805 -62.741 1.71021 -91.7198 -44.6605 6.56683 -21.3493 -89.0713 -40.5846 78.0404 -23.7471 -22.8375 -55.7403 71.3386 -2.77081 -92.7851 17.0518 -0.685386 -7.85799 32.3269 -1.07564 -0.744978 4.57148 -0.640124 1.23324 
-92.8713 25.0776 123.625 -12.6472 1.90761 -86.7702 -149.542 18.1371 105.035 -52.0771 16.7816 -13.8048 82.3783 12.7124 -8.5721 35.7844 -5.31731 19.9025 160.781 21.3231 75.1907 -55.5024 -21.2123 3.56895 77.1657 -10.3398 1.06349 39.296 -4.38406 0.133092 1.01646 7.0343 -90.407 12.8144 1.82359 -1.03174 1.14427 1.77645 -1.11103 -21.4003 2.04935 -0.435797 -1.38766 2.04936 -0.435831 90.3752 -18.7035 -111.09 3.63724 70.1455 52.4524 -58.9696 14.0491 -102.262 -46.259 9.02901 -26.4084 -87.4693 -41.0229 80.8172 -22.1115 -19.0171 -55.7233 69.5845 -3.61237 -93.1409 15.9027 -0.471323 -6.73704 32.2484 -0.550523 0.920327 4.6603 -0.91858 -0.392868 
-93.1096 23.5159 124.965 -12.4147 0.21834 -86.4109 -151.093 15.3332 104.415 -49.3625 15.6933 -13.1086 85.3126 14.2394 -9.49053 35.6164 -5.06215 19.1201 158.852 19.8464 73.364 -53.6331 -22.8339 4.83922 77.1228 -10.2322 1.4705 38.6116 -4.04587 -0.192422 1.05524 6.87233 -90.3844 13.1389 1.9095 -1.00527 1.4689 1.86339 -1.08835 -21.0768 2.1233 -0.384704 -1.06418 2.1233 -0.384714 89.7802 -22.2686 -110.616 8.23951 60.766 71.3802 -51.731 20.9643 -110.525 -61.0214 12.22 -25.9523 -88.2027 -35.8829 78.3578 -21.6729 -17.99 -53.2302 67.7586 -4.25149 -93.5101 16.559 0.126648 -3.06516 31.5156 -2.20749 -2.2193 5.16984 -1.05389 2.16961 
